<?xml version="1.0" encoding="UTF-8"?>
<svg width="300px" height="300px" viewBox="0 0 300 300" version="1.1" xmlns="http://www.w3.org/2000/svg" xmlns:xlink="http://www.w3.org/1999/xlink">
    <title>wave-fund-logo</title>
    <defs>
        <linearGradient x1="50%" y1="0%" x2="50%" y2="100%" id="linearGradient-1">
            <stop stop-color="#6BCDBC" offset="0%"></stop>
            <stop stop-color="#0B99B8" offset="100%"></stop>
        </linearGradient>
    </defs>
    <g id="wave-fund-logo" stroke="none" stroke-width="1" fill="none" fill-rule="evenodd">
        <path d="M99.5557972,30.8726239 C61.6262836,30.8726239 30.864423,61.6180826 30.864423,99.5557972 L30.864423,99.5557972 L30.864423,200.444203 C30.864423,238.373716 61.6262836,269.135577 99.5557972,269.135577 L99.5557972,269.135577 L200.444203,269.135577 C238.381917,269.135577 269.127376,238.373716 269.127376,200.444203 L269.127376,200.444203 L269.127376,99.5557972 C269.127376,61.6180826 238.381917,30.8726239 200.444203,30.8726239 L200.444203,30.8726239 L99.5557972,30.8726239 Z" id="Fill-11" fill="url(#linearGradient-1)"></path>
        <path d="M99.6913742,31 C61.7618606,31 31,61.7454587 31,99.6831732 L31,99.6831732 L31,200.571579 C31,238.501092 61.7618606,269.262953 99.6913742,269.262953 L99.6913742,269.262953 L200.57978,269.262953 C238.517494,269.262953 269.262953,238.501092 269.262953,200.571579 L269.262953,200.571579 L269.262953,99.6831732 C269.262953,61.7454587 238.517494,31 200.57978,31 L200.57978,31 L99.6913742,31 Z" id="Fill-11" fill="url(#linearGradient-1)" opacity="0.300000012" transform="translate(150.131477, 150.131477) rotate(15.000000) translate(-150.131477, -150.131477) "></path>
        <path d="M99.6913742,31 C61.7618606,31 31,61.7454587 31,99.6831732 L31,99.6831732 L31,200.571579 C31,238.501092 61.7618606,269.262953 99.6913742,269.262953 L99.6913742,269.262953 L200.57978,269.262953 C238.517494,269.262953 269.262953,238.501092 269.262953,200.571579 L269.262953,200.571579 L269.262953,99.6831732 C269.262953,61.7454587 238.517494,31 200.57978,31 L200.57978,31 L99.6913742,31 Z" id="Fill-11" fill="url(#linearGradient-1)" opacity="0.300000012" transform="translate(150.131477, 150.131477) rotate(30.000000) translate(-150.131477, -150.131477) "></path>
        <path d="M99.6913742,31 C61.7618606,31 31,61.7454587 31,99.6831732 L31,99.6831732 L31,200.571579 C31,238.501092 61.7618606,269.262953 99.6913742,269.262953 L99.6913742,269.262953 L200.57978,269.262953 C238.517494,269.262953 269.262953,238.501092 269.262953,200.571579 L269.262953,200.571579 L269.262953,99.6831732 C269.262953,61.7454587 238.517494,31 200.57978,31 L200.57978,31 L99.6913742,31 Z" id="Fill-11" fill="url(#linearGradient-1)" opacity="0.300000012" transform="translate(150.131477, 150.131477) rotate(45.000000) translate(-150.131477, -150.131477) "></path>
        <path d="M99.6913742,31 C61.7618606,31 31,61.7454587 31,99.6831732 L31,99.6831732 L31,200.571579 C31,238.501092 61.7618606,269.262953 99.6913742,269.262953 L99.6913742,269.262953 L200.57978,269.262953 C238.517494,269.262953 269.262953,238.501092 269.262953,200.571579 L269.262953,200.571579 L269.262953,99.6831732 C269.262953,61.7454587 238.517494,31 200.57978,31 L200.57978,31 L99.6913742,31 Z" id="Fill-11" fill="url(#linearGradient-1)" opacity="0.300000012" transform="translate(150.131477, 150.131477) rotate(60.000000) translate(-150.131477, -150.131477) "></path>
        <path d="M150.000506,248 C99.2585805,248 56.2162512,208.720891 52.0158702,158.581259 C51.8108122,156.171458 53.6166453,154.037437 56.0574966,153.840451 C58.5578809,153.617199 60.6349197,155.442608 60.8399777,157.858975 C64.6699314,203.474484 103.829389,239.207836 150.000506,239.207836 C196.178238,239.207836 235.337695,203.467917 239.154419,157.852409 C239.352862,155.429475 241.46959,153.630332 243.9369,153.833884 C246.371137,154.030871 248.183584,156.158325 247.985141,158.574693 C243.791375,208.720891 200.749046,248 150.000506,248" id="line2" fill="#FFFFFF"></path>
        <path d="M240.166093,129.212121 C238.238965,129.212121 236.470231,127.941902 235.915851,125.983648 C225.118654,87.6389081 189.790173,60.8584552 150.000257,60.8584552 C110.210342,60.8584552 74.8818604,87.6322924 64.0846633,125.977032 C63.4180882,128.338846 60.9431806,129.688453 58.626667,129.040112 C56.2771547,128.371924 54.9110057,125.924106 55.5775808,123.568908 C67.443938,81.4267428 106.263689,52 150.000257,52 C193.730226,52 232.556577,81.4333585 244.422934,123.575524 C245.089509,125.930722 243.71676,128.37854 241.367248,129.046728 C240.971263,129.159195 240.568678,129.212121 240.166093,129.212121" id="line1" fill="#FFFFFF"></path>
        <path d="M197.545698,180.969697 C188.736947,180.969697 180.602739,176.137311 174.624428,167.374053 L166.516673,155.462121 C162.244561,149.184659 156.709332,145.724432 150.922802,145.724432 L150.916189,145.724432 C145.129659,145.724432 139.587817,149.184659 135.315705,155.462121 L127.214564,167.367424 C121.236252,176.137311 113.095431,180.969697 104.293293,180.969697 L104.28668,180.969697 C95.4845418,180.969697 87.3503345,176.137311 81.3720227,167.374053 L73.264268,155.462121 C68.7540815,148.826705 62.9609387,145.300189 56.7180999,145.803977 C54.2646113,145.976326 52.1682343,144.113636 52.0095181,141.667614 C51.8508018,139.214962 53.6958781,137.107008 56.1361403,136.941288 C65.4541063,136.291667 74.3356027,141.256629 80.5850547,150.457386 L88.6928093,162.362689 C92.9649215,168.640152 98.5001504,172.09375 104.28668,172.09375 L104.293293,172.09375 C110.079823,172.09375 115.621665,168.640152 119.893777,162.362689 L128.001532,150.457386 C133.97323,141.674242 142.114051,136.848485 150.916189,136.848485 L150.922802,136.848485 C159.72494,136.848485 167.865761,141.674242 173.83746,150.450758 L181.945214,162.362689 C190.489439,174.917614 204.601958,174.917614 213.146182,162.362689 L221.253937,150.450758 C227.020627,141.979167 234.890307,137.166667 243.427918,136.888258 C245.815275,136.82197 247.924878,138.737689 247.997623,141.190341 C248.076981,143.636364 246.15916,145.691288 243.718898,145.764205 C238.077858,145.949811 232.701346,149.383523 228.574723,155.455492 L220.466969,167.374053 C214.488657,176.137311 206.35445,180.969697 197.545698,180.969697" id="wave-line" fill="#FFFFFF"></path>
    </g>
</svg>