<?xml version="1.0" encoding="UTF-8"?>
<svg width="300px" height="300px" viewBox="0 0 300 300" version="1.1" xmlns="http://www.w3.org/2000/svg" xmlns:xlink="http://www.w3.org/1999/xlink">
    <title>wave-exchange-logo</title>
    <defs>
        <linearGradient x1="50%" y1="0%" x2="50%" y2="100%" id="linearGradient-1">
            <stop stop-color="#6BCDBC" offset="0%"></stop>
            <stop stop-color="#0B99B8" offset="100%"></stop>
        </linearGradient>
    </defs>
    <g id="wave-exchange-logo" stroke="none" stroke-width="1" fill="none" fill-rule="evenodd">
        <circle id="Oval" fill="url(#linearGradient-1)" cx="150" cy="150" r="145"></circle>
        <path d="M205.793421,187 C195.456621,187 185.911378,181.304688 178.896012,170.976562 L169.38181,156.9375 C164.368617,149.539063 157.873196,145.460938 151.08288,145.460938 L151.07512,145.460938 C144.284804,145.460938 137.781622,149.539063 132.76843,156.9375 L123.261988,170.96875 C116.246622,181.304688 106.693619,187 96.3645788,187 L96.3568184,187 C86.0277787,187 76.4825353,181.304688 69.4671695,170.976562 L59.9529676,156.9375 C54.6604018,149.117188 47.862326,144.960938 40.5365458,145.554688 C37.6574521,145.757813 35.1974178,143.5625 35.0111692,140.679688 C34.8249205,137.789063 36.9900611,135.304688 39.8536341,135.109375 C50.7879819,134.34375 61.210146,140.195313 68.5436866,151.039063 L78.0578885,165.070313 C83.0710813,172.46875 89.566503,176.539062 96.3568184,176.539062 L96.3645788,176.539062 C103.154894,176.539062 109.658076,172.46875 114.671269,165.070313 L124.185471,151.039063 C131.193076,140.6875 140.74608,135 151.07512,135 L151.08288,135 C161.41192,135 170.964924,140.6875 177.972529,151.03125 L187.486731,165.070313 C197.513117,179.867188 214.073726,179.867188 224.100112,165.070313 L233.614313,151.03125 C240.381348,141.046875 249.616177,135.375 259.634802,135.046875 C262.436292,134.96875 264.911847,137.226563 264.997211,140.117188 C265.090335,143 262.839831,145.421875 259.976258,145.507812 C253.35667,145.726562 247.047497,149.773438 242.205032,156.929688 L232.690831,170.976562 C225.675465,181.304688 216.130221,187 205.793421,187" id="wave-line" fill="#FFFFFF"></path>
        <path d="M150.000593,266 C90.4564975,266 39.9476417,219.706764 35.0186232,160.613627 C34.7779939,157.773504 36.8970838,155.258408 39.7613481,155.026245 C42.6954725,154.763128 45.1328139,156.914502 45.3734432,159.762364 C49.8677766,213.523499 95.8202011,255.637806 150.000593,255.637806 C204.188748,255.637806 250.141173,213.51576 254.619982,159.754625 C254.852849,156.899024 257.336763,154.778605 260.232077,155.018507 C263.088579,155.250669 265.215431,157.758026 264.982564,160.605888 C260.061307,219.706764 209.552452,266 150.000593,266" id="line2" fill="#FFFFFF"></path>
        <path d="M255.80715,126 C253.545724,126 251.470169,124.502956 250.819621,122.195013 C238.149441,77.0029989 196.692549,45.4403222 150.000302,45.4403222 C103.308055,45.4403222 61.8511628,76.9952018 49.1809825,122.187216 C48.398777,124.970782 45.4945486,126.561391 42.7761909,125.797275 C40.0191101,125.009768 38.415976,122.124839 39.1981815,119.34907 C53.1229885,69.6815183 98.6767784,35 150.000302,35 C201.316081,35 246.877615,69.6893154 260.802422,119.356867 C261.584628,122.132636 259.973749,125.017565 257.216668,125.805072 C256.751992,125.937623 256.279571,126 255.80715,126" id="line1" fill="#FFFFFF"></path>
    </g>
</svg>