<?xml version="1.0" encoding="UTF-8"?>
<svg width="300px" height="300px" viewBox="0 0 300 300" version="1.1" xmlns="http://www.w3.org/2000/svg" xmlns:xlink="http://www.w3.org/1999/xlink">
    <title>wave-market-logo</title>
    <defs>
        <linearGradient x1="50%" y1="0%" x2="50%" y2="100%" id="linearGradient-1">
            <stop stop-color="#6BCDBC" offset="0%"></stop>
            <stop stop-color="#0B99B8" offset="100%"></stop>
        </linearGradient>
    </defs>
    <g id="wave-market-logo" stroke="none" stroke-width="1" fill="none" fill-rule="evenodd">
        <path d="M150,2 C139.586381,2 129.163465,4.69260125 119.8284,10.0778037 L119.8284,10.0778037 L44.1716005,53.697944 C25.5014699,64.468349 14,84.3564589 14,105.878699 L14,105.878699 L14,193.128264 C14,214.64122 25.5014699,234.538615 44.1716005,245.30902 L44.1716005,245.30902 L119.8284,288.92916 C138.49853,299.69028 161.492172,299.69028 180.162303,288.92916 L180.162303,288.92916 L255.8284,245.30902 C274.49853,234.538615 286,214.64122 286,193.128264 L286,193.128264 L286,105.878699 C286,84.3564589 274.49853,64.468349 255.8284,53.697944 L255.8284,53.697944 L180.162303,10.0778037 C170.827237,4.69260125 160.413619,2 150,2 Z" id="bg" fill="url(#linearGradient-1)"></path>
        <path d="M199.912846,181.76363 C190.67076,181.76363 182.126014,176.712682 175.859247,167.548553 L167.342394,155.088308 C158.369946,141.940986 143.558433,141.940986 134.595283,155.088308 L126.07843,167.548553 C119.811663,176.712682 111.266917,181.76363 102.024831,181.76363 C92.7827442,181.76363 84.2379982,176.712682 77.9619334,167.548553 L69.4543789,155.088308 C64.7124633,148.143254 58.5851644,144.512885 52.0859506,144.986411 C49.4639502,145.227817 47.3068435,143.213008 47.1394818,140.650395 C46.9721201,138.097066 48.9153757,135.896561 51.472291,135.720149 C61.2722499,135.098065 70.5608259,140.232577 77.1344226,149.851663 L85.6419772,162.302623 C94.6144254,175.431375 109.425938,175.431375 118.398387,162.302623 L126.905941,149.842378 C133.182006,140.668964 141.726752,135.618016 150.968838,135.618016 C160.210925,135.618016 168.755671,140.668964 175.022438,149.842378 L183.53929,162.302623 C192.511739,175.431375 207.313954,175.431375 216.286402,162.302623 L224.803254,149.842378 C230.846872,140.984649 239.112682,135.95227 248.075832,135.66444 C250.660641,135.562307 252.789854,137.595685 252.864237,140.167583 C252.957216,142.720912 250.939577,144.865708 248.373364,144.949272 C242.459917,145.144253 236.816107,148.728198 232.483298,155.079023 L223.966446,167.548553 C217.699679,176.712682 209.154933,181.76363 199.912846,181.76363" id="wave" fill="#FFFFFF"></path>
        <path d="M150.050209,262.498029 C143.960101,262.498029 137.860696,260.928892 132.42144,257.790619 L64.9467697,218.887174 C54.0682573,212.619912 47.318001,200.930309 47.318001,188.395786 L47.318001,166.799267 C47.318001,164.236653 49.3914268,162.156851 51.9669379,162.156851 C54.533151,162.156851 56.6158748,164.236653 56.6158748,166.799267 L56.6158748,188.395786 C56.6158748,197.634193 61.5902372,206.222663 69.5957066,210.855794 L137.070377,249.75924 C145.085144,254.373801 155.033869,254.355231 163.03004,249.75924 L230.50471,210.855794 C238.519478,206.222663 243.49384,197.634193 243.49384,188.395786 L243.49384,166.799267 C243.49384,164.236653 245.567266,162.156851 248.142777,162.156851 C250.70899,162.156851 252.791714,164.236653 252.791714,166.799267 L252.791714,188.395786 C252.791714,200.930309 246.03216,212.619912 235.153647,218.887174 L167.678977,257.790619 C162.249019,260.928892 156.149614,262.498029 150.050209,262.498029" id="line2" fill="#FFFFFF"></path>
        <path d="M248.140917,118.446648 C245.574704,118.446648 243.491981,116.366845 243.491981,113.804232 L243.491981,110.59168 C243.491981,101.353272 238.517618,92.7555178 230.512149,88.1316715 L163.037479,49.2375107 C155.022711,44.6322341 145.073986,44.6322341 137.068517,49.2375107 L69.593847,88.1316715 C61.5883777,92.7555178 56.6140152,101.353272 56.6140152,110.59168 L56.6140152,113.794947 C56.6140152,116.35756 54.5312914,118.437363 51.9650783,118.437363 C49.3988651,118.437363 47.3161414,116.35756 47.3161414,113.794947 L47.3161414,110.59168 C47.3161414,98.0571568 54.0663978,86.3675534 64.9449101,80.1002919 L132.41958,41.2061311 C143.298093,34.9388696 156.807903,34.9388696 167.686416,41.2061311 L235.161086,80.1002919 C246.0303,86.3675534 252.789854,98.0571568 252.789854,110.59168 L252.789854,113.804232 C252.789854,116.366845 250.707131,118.446648 248.140917,118.446648" id="line1" fill="#FFFFFF"></path>
    </g>
</svg>