<?xml version="1.0" encoding="UTF-8"?>
<svg width="300px" height="300px" viewBox="0 0 300 300" version="1.1" xmlns="http://www.w3.org/2000/svg" xmlns:xlink="http://www.w3.org/1999/xlink">
    <title>wave-logo-white</title>
    <g id="wave-logo-white" stroke="none" stroke-width="1" fill="none" fill-rule="evenodd">
        <g id="wave-logo" transform="translate(10.000000, 10.000000)" fill="#FFFFFF">
            <path d="M207.922426,184.158432 C195.338495,184.158432 183.718199,177.267981 175.177754,164.772538 L163.595247,147.787433 C157.49223,138.836462 149.58476,133.902558 141.318289,133.902558 L141.308842,133.902558 C133.042371,133.902558 125.125453,138.836462 119.022436,147.787433 L107.449377,164.763086 C98.9089314,177.267981 87.2791878,184.158432 74.7047046,184.158432 L74.6952572,184.158432 C62.120774,184.158432 50.5004778,177.267981 41.9600324,164.772538 L30.3775258,147.787433 C23.9344022,138.326058 15.6584839,133.297635 6.7401427,134.015981 C3.23515904,134.261731 0.240334726,131.60574 0.0135972381,128.117981 C-0.213140249,124.620769 2.42268304,121.615058 5.90877191,121.37876 C19.2201519,120.452471 31.9080038,127.531962 40.8357924,140.651231 L52.418299,157.626884 C58.5213164,166.577856 66.4287863,171.502307 74.6952572,171.502307 L74.7047046,171.502307 C82.9711755,171.502307 90.8880928,166.577856 96.9911101,157.626884 L108.573617,140.651231 C117.104615,128.127433 128.734358,121.246433 141.308842,121.246433 L141.318289,121.246433 C153.892772,121.246433 165.522516,128.127433 174.053514,140.641779 L185.63602,157.626884 C197.842055,175.528827 218.002797,175.528827 230.208831,157.626884 L241.791338,140.641779 C250.029467,128.562221 261.271867,121.700125 273.468455,121.303144 C276.878964,121.208625 279.892683,123.940231 279.996605,127.437442 C280.109973,130.925202 277.370229,133.855298 273.88414,133.959269 C265.825512,134.223923 258.144779,139.120019 252.249605,147.777981 L240.667098,164.772538 C232.126653,177.267981 220.506356,184.158432 207.922426,184.158432" id="wave-line"></path>
            <path d="M140.001322,281 C67.5303526,281 6.05615128,224.458597 0.0570552566,152.283712 C-0.235813998,148.814857 2.34332492,145.742982 5.82941379,145.459424 C9.40052922,145.138059 12.3670114,147.765693 12.6598806,151.244001 C18.1299225,216.90651 74.0585027,268.343875 140.001322,268.343875 C205.953589,268.343875 261.882169,216.897058 267.333316,151.234549 C267.616738,147.746789 270.639904,145.156962 274.163783,145.449972 C277.640424,145.73353 280.229011,148.795953 279.945589,152.27426 C273.95594,224.458597 212.481739,281 140.001322,281" id="line2"></path>
            <path d="M269.070692,110.313393 C266.312053,110.313393 263.780151,108.498624 262.986569,105.700855 C247.530631,50.9175093 196.958724,12.6561249 140.000377,12.6561249 C83.042031,12.6561249 32.4701238,50.9080573 17.0141851,105.691403 C16.0599982,109.06574 12.5172249,110.993932 9.20118918,110.067643 C5.83791645,109.112999 3.88230562,105.615788 4.83649255,102.250903 C21.8229093,42.0421536 77.3924886,0 140.000377,0 C202.598819,0 258.177845,42.0516055 275.164262,102.260355 C276.118449,105.62524 274.153391,109.122451 270.790118,110.077095 C270.223274,110.237778 269.646983,110.313393 269.070692,110.313393" id="line1"></path>
        </g>
    </g>
</svg>