<?xml version="1.0" encoding="UTF-8"?>
<svg width="1470px" height="300px" viewBox="0 0 1470 300" version="1.1" xmlns="http://www.w3.org/2000/svg" xmlns:xlink="http://www.w3.org/1999/xlink">
    <title>wave-logo-text</title>
    <defs>
        <polygon id="path-1" points="0 0 127.384774 0 127.384774 91.0162003 0 91.0162003"></polygon>
        <polygon id="path-3" points="0 0 71.2513567 0 71.2513567 92.5668678 0 92.5668678"></polygon>
        <polygon id="path-5" points="0 0 71.935233 0 71.935233 90.8537223 0 90.8537223"></polygon>
        <polygon id="path-7" points="0 0 72.9764636 0 72.9764636 91.6219298 0 91.6219298"></polygon>
        <polygon id="path-9" points="0 0 72.9750389 0 72.9750389 91.6219298 0 91.6219298"></polygon>
    </defs>
    <g id="wave-logo-text" stroke="none" stroke-width="1" fill="none" fill-rule="evenodd">
        <g id="wave-logo" transform="translate(10.000000, 10.000000)">
            <path d="M207.922426,184.158432 C195.338495,184.158432 183.718199,177.267981 175.177754,164.772538 L163.595247,147.787433 C157.49223,138.836462 149.58476,133.902558 141.318289,133.902558 L141.308842,133.902558 C133.042371,133.902558 125.125453,138.836462 119.022436,147.787433 L107.449377,164.763086 C98.9089314,177.267981 87.2791878,184.158432 74.7047046,184.158432 L74.6952572,184.158432 C62.120774,184.158432 50.5004778,177.267981 41.9600324,164.772538 L30.3775258,147.787433 C23.9344022,138.326058 15.6584839,133.297635 6.7401427,134.015981 C3.23515904,134.261731 0.240334726,131.60574 0.0135972381,128.117981 C-0.213140249,124.620769 2.42268304,121.615058 5.90877191,121.37876 C19.2201519,120.452471 31.9080038,127.531962 40.8357924,140.651231 L52.418299,157.626884 C58.5213164,166.577856 66.4287863,171.502307 74.6952572,171.502307 L74.7047046,171.502307 C82.9711755,171.502307 90.8880928,166.577856 96.9911101,157.626884 L108.573617,140.651231 C117.104615,128.127433 128.734358,121.246433 141.308842,121.246433 L141.318289,121.246433 C153.892772,121.246433 165.522516,128.127433 174.053514,140.641779 L185.63602,157.626884 C197.842055,175.528827 218.002797,175.528827 230.208831,157.626884 L241.791338,140.641779 C250.029467,128.562221 261.271867,121.700125 273.468455,121.303144 C276.878964,121.208625 279.892683,123.940231 279.996605,127.437442 C280.109973,130.925202 277.370229,133.855298 273.88414,133.959269 C265.825512,134.223923 258.144779,139.120019 252.249605,147.777981 L240.667098,164.772538 C232.126653,177.267981 220.506356,184.158432 207.922426,184.158432" id="wave-line" fill="#30BFBF"></path>
            <path d="M140.001322,281 C67.5303526,281 6.05615128,224.458597 0.0570552566,152.283712 C-0.235813998,148.814857 2.34332492,145.742982 5.82941379,145.459424 C9.40052922,145.138059 12.3670114,147.765693 12.6598806,151.244001 C18.1299225,216.90651 74.0585027,268.343875 140.001322,268.343875 C205.953589,268.343875 261.882169,216.897058 267.333316,151.234549 C267.616738,147.746789 270.639904,145.156962 274.163783,145.449972 C277.640424,145.73353 280.229011,148.795953 279.945589,152.27426 C273.95594,224.458597 212.481739,281 140.001322,281" id="line2" fill="#8DD8CC"></path>
            <path d="M269.070692,110.313393 C266.312053,110.313393 263.780151,108.498624 262.986569,105.700855 C247.530631,50.9175093 196.958724,12.6561249 140.000377,12.6561249 C83.042031,12.6561249 32.4701238,50.9080573 17.0141851,105.691403 C16.0599982,109.06574 12.5172249,110.993932 9.20118918,110.067643 C5.83791645,109.112999 3.88230562,105.615788 4.83649255,102.250903 C21.8229093,42.0421536 77.3924886,0 140.000377,0 C202.598819,0 258.177845,42.0516055 275.164262,102.260355 C276.118449,105.62524 274.153391,109.122451 270.790118,110.077095 C270.223274,110.237778 269.646983,110.313393 269.070692,110.313393" id="line1" fill="#8DD8CC"></path>
        </g>
        <g id="text" transform="translate(353.000000, 90.000000)">
            <g id="Group-3" transform="translate(0.000000, 28.198489)">
                <mask id="mask-2" fill="white">
                    <use xlink:href="#path-1"></use>
                </mask>
                <g id="Clip-2"></g>
                <path d="M127.384774,6.92669485 C127.384774,8.12390137 126.957351,9.57765214 126.786382,10.3472849 L106.882734,80.4266236 C105.002074,87.6098627 100.129456,91.0162003 94.2310235,91.0162003 C88.2471063,91.0162003 83.1322818,87.6098627 81.3371067,80.3411088 L64.5821386,15.634947 C64.4254169,15.1218585 64.0834788,14.950829 63.7415407,14.950829 C63.3853551,14.950829 63.043417,15.1218585 62.8866954,15.634947 L45.7043046,80.2698465 C43.9091294,87.6098627 39.2217276,91.0162003 33.1523259,91.0162003 C26.9974397,91.0162003 22.381275,87.6098627 20.4151308,80.4266236 L0.511482445,10.3472849 C0.340513383,9.57765214 -0.00142474219,8.12390137 -0.00142474219,6.92669485 C-0.00142474219,3.07853105 3.07601838,0 6.90857486,0 C9.90053345,0 12.7357704,1.96683928 13.5763683,5.30191458 C20.0731927,29.2317925 26.4845325,52.9193786 32.7106559,77.0060335 C32.8103878,77.519122 33.2378105,77.8754335 33.5797486,77.8754335 C33.9074393,77.8754335 34.2493774,77.519122 34.4345939,77.0060335 C39.976841,54.6154212 45.6188201,32.3103235 51.2607991,10.6038292 C52.9704897,3.5061048 58.1850461,0 63.7415407,0 C69.5402414,0 74.4128597,3.67713431 76.2080348,10.6893439 C82.0209829,32.5668678 87.5774775,54.8719654 93.2194565,77.0060335 C93.3761782,77.519122 93.7181163,77.8754335 94.0600544,77.8754335 C94.4019925,77.8754335 94.7439307,77.519122 94.9148997,77.0060335 C100.984301,53.1616704 107.310157,29.3173072 113.721497,5.30191458 C114.576342,1.96683928 117.383084,0 120.460527,0 C124.221846,0 127.384774,3.07853105 127.384774,6.92669485" id="Fill-1" fill="#30BFBF" mask="url(#mask-2)"></path>
            </g>
            <g id="Group-6" transform="translate(143.954526, 27.433132)">
                <mask id="mask-4" fill="white">
                    <use xlink:href="#path-3"></use>
                </mask>
                <g id="Clip-5"></g>
                <path d="M13.406824,63.9222766 C13.406824,74.1840467 20.6730091,80.1700793 35.191132,80.1700793 C43.6541006,80.1700793 52.9576671,76.9205188 57.6593163,73.414414 L57.6593163,51.6224049 C48.9541415,49.2279918 42.7137707,47.8597558 35.1056475,47.8597558 C20.2455865,47.8597558 13.406824,55.0429949 13.406824,63.9222766 M71.2513567,31.9682645 L71.2513567,77.6046368 C71.2513567,80.0845646 70.652965,81.6238301 68.4303672,83.2343579 C63.8142025,86.5836857 51.2622239,92.5697183 33.737895,92.5697183 C11.3551952,92.5697183 0,80.8399449 0,64.0220438 C0,48.7149033 11.0132571,36.2440021 33.737895,36.2440021 C42.0298945,36.2440021 48.768925,37.3556939 57.6593163,39.8356216 L57.6593163,32.8091596 C57.6593163,19.2265666 51.1624919,13.0837569 36.5588845,13.0837569 C30.0620601,13.0837569 22.7246379,14.60877 16.6552362,17.5162716 C15.0310301,18.2003896 13.8342466,18.3714191 12.8084323,18.3714191 C9.21808195,18.3714191 6.31160789,15.3926552 6.31160789,11.9578127 C6.31160789,9.73442919 7.33742226,7.18323911 10.7568035,5.54420638 C16.0568444,2.90750154 26.0585346,0 36.5588845,0 C59.1125533,0 71.2513567,9.49213739 71.2513567,31.9682645" id="Fill-4" fill="#30BFBF" mask="url(#mask-4)"></path>
            </g>
            <path d="M313.339275,35.1251841 C313.339275,36.4934201 312.826368,37.8474037 312.31346,39.1301249 L286.254926,108.796142 C283.775874,115.62307 279.416163,119.21469 273.261277,119.21469 C267.377092,119.21469 262.931896,115.708585 260.452845,109.052687 L234.052372,39.1301249 C233.539465,37.8474037 233.112042,36.4934201 233.112042,35.1251841 C233.112042,31.2770203 236.189485,28.1984892 239.950805,28.1984892 C243.113732,28.1984892 245.664021,30.2508433 246.604351,32.9873153 L272.406432,105.119008 C272.591648,105.803126 272.933586,105.974156 273.346762,105.974156 C273.788432,105.974156 274.044885,105.803126 274.287091,105.119008 L299.747234,32.9873153 C300.687564,30.2508433 303.2521,28.1984892 306.415028,28.1984892 C310.176347,28.1984892 313.339275,31.2770203 313.339275,35.1251841" id="Fill-7" fill="#30BFBF"></path>
            <path d="M340.038943,68.0284099 L385.915642,68.0284099 C387.539848,68.0284099 388.13824,67.4298066 388.309209,65.7195116 C389.420508,50.1700793 379.589786,40.0793387 364.729725,40.0793387 C347.90352,40.0793387 339.611521,50.6689154 340.038943,68.0284099 M401.473826,64.2657608 L401.473826,69.8242197 C401.473826,75.6392228 398.310899,79.5729013 390.959229,79.5729013 L340.038943,79.5729013 L340.038943,82.4804029 C340.038943,98.4574089 350.72451,106.994632 365.926509,106.994632 C373.705601,106.994632 379.775003,105.797425 384.633374,103.488527 C386.770487,102.476602 388.480178,101.792484 390.018899,101.792484 C393.523765,101.792484 396.430239,104.685733 396.430239,108.277353 C396.430239,110.757281 395.147971,113.066179 391.72859,114.690959 C385.830157,117.612713 376.69756,119.992874 365.584571,119.992874 C341.748634,119.992874 328.085356,105.12756 326.703357,83.1645209 C326.290181,76.8364293 326.446903,67.9428951 326.803088,62.5554658 C328.498532,40.7634567 343.629294,27.4231555 364.729725,27.4231555 C387.283394,27.4231555 401.473826,42.5592665 401.473826,64.2657608" id="Fill-9" fill="#30BFBF"></path>
            <g id="Group-13" transform="translate(427.844380, 29.146278)">
                <mask id="mask-6" fill="white">
                    <use xlink:href="#path-5"></use>
                </mask>
                <g id="Clip-12"></g>
                <path d="M71.935233,5.11663262 L71.935233,75.9798565 C71.935233,78.0179581 71.4223258,79.5714761 69.7126352,80.5976531 C64.5835633,84.1892726 53.2996052,90.8594233 35.7040392,90.8594233 C15.2019991,90.8594233 0,78.5310466 0,56.8388047 L0,5.11663262 C0,2.22338353 2.20835039,0 5.12907187,0 C7.67936038,0 9.9019582,2.22338353 9.9019582,5.11663262 L9.9019582,57.0098342 C9.9019582,71.704119 19.3052566,80.9254596 35.7040392,80.9254596 C47.8428426,80.9254596 56.3770483,77.177063 62.0190274,73.5854435 L62.0190274,5.11663262 C62.0190274,2.22338353 64.0706561,0 66.9771302,0 C69.7126352,0 71.935233,2.22338353 71.935233,5.11663262" id="Fill-11" fill="#0C98BA" mask="url(#mask-6)"></path>
            </g>
            <path d="M605.947126,62.7250701 L605.947126,114.090931 C605.947126,117.012685 604.066466,119.221816 600.989023,119.221816 C598.253518,119.221816 596.03092,117.012685 596.03092,114.090931 L596.03092,63.4091881 C596.03092,45.9784313 584.590241,38.2821037 570.399809,38.2821037 C558.959129,38.2821037 548.871954,41.8737232 543.913851,44.9522543 L543.913851,114.090931 C543.913851,117.012685 541.862223,119.221816 538.969996,119.221816 C536.234491,119.221816 534.011893,117.012685 534.011893,114.090931 L534.011893,42.7288707 C534.011893,39.9923987 534.695769,38.7951922 536.40546,37.5979857 C541.192594,34.0063661 553.146181,28.376645 570.741747,28.376645 C593.993539,28.376645 605.947126,41.0328282 605.947126,62.7250701" id="Fill-14" fill="#0C98BA"></path>
            <path d="M648.723585,34.2629104 L648.723585,114.105183 C648.723585,117.012685 646.671957,119.221816 643.594514,119.221816 C640.51707,119.221816 638.80738,117.012685 638.80738,114.105183 L638.80738,34.2629104 C638.80738,31.2841465 641.029978,29.1462777 643.765483,29.1462777 C646.500988,29.1462777 648.723585,31.2841465 648.723585,34.2629104 M650.604245,6.82692765 C650.604245,10.7748587 647.526802,13.8391373 643.594514,13.8391373 C639.662225,13.8391373 636.92672,10.7748587 636.92672,6.82692765 C636.92672,3.07853105 639.662225,-8.99558206e-14 643.594514,-8.99558206e-14 C647.526802,-8.99558206e-14 650.604245,3.07853105 650.604245,6.82692765" id="Fill-16" fill="#0C98BA"></path>
            <path d="M747.50951,34.0961566 C747.50951,35.0368189 747.167572,36.0629959 746.740149,37.0891729 L718.971924,111.358734 C717.091264,116.489619 713.842852,119.226092 709.055718,119.226092 C704.453801,119.226092 701.03442,116.575134 699.15376,111.544016 L670.872628,37.0891729 C670.445205,36.0629959 670.103267,35.0368189 670.103267,34.0961566 C670.103267,31.373937 672.325865,29.136301 675.06137,29.136301 C677.283967,29.136301 679.079143,30.5900518 679.677534,32.3003468 L708.21512,109.149603 C708.457326,109.819469 708.71378,109.990498 709.055718,109.990498 C709.397656,109.990498 709.65411,109.819469 709.910563,109.149603 L737.935242,32.3003468 C738.533634,30.5900518 740.328809,29.136301 742.551407,29.136301 C745.286912,29.136301 747.50951,31.373937 747.50951,34.0961566" id="Fill-18" fill="#0C98BA"></path>
            <g id="Group-22" transform="translate(762.233051, 28.378070)">
                <mask id="mask-8" fill="white">
                    <use xlink:href="#path-7"></use>
                </mask>
                <g id="Clip-21"></g>
                <path d="M9.93162189,40.8475462 L60.5099695,40.8475462 C62.2196601,40.8475462 62.9035364,40.1634282 63.0745054,38.4531332 C64.4422579,21.0081239 53.5002379,9.90545869 37.1014554,9.90545869 C18.6510441,9.90545869 9.4187147,21.5354649 9.93162189,40.8475462 M72.9764636,35.7309136 L72.9764636,41.7026937 C72.9764636,47.0758706 69.8990205,50.5962278 63.0745054,50.5962278 L9.93162189,50.5962278 L9.93162189,53.8315359 C9.93162189,71.9606632 21.4720336,81.6950924 38.2127543,81.6950924 C46.3337847,81.6950924 52.7308772,80.4978859 57.859949,78.0179581 C59.6551242,77.177063 61.2793303,76.492945 62.5615983,76.492945 C65.2971032,76.492945 67.5197011,78.7020761 67.5197011,81.4528006 C67.5197011,83.4909022 66.4084022,85.2011972 63.7583817,86.4839185 C58.0309181,89.3059053 48.9695578,91.629056 38.1272698,91.629056 C14.2058484,91.629056 1.38316877,76.7494893 0.186385333,54.515654 C-0.155552792,48.3585919 0.0154162707,39.9923987 0.357354395,34.6904841 C1.89607596,12.9839897 16.756137,0 37.2724244,0 C59.4841551,0 72.9764636,15.0363438 72.9764636,35.7309136" id="Fill-20" fill="#0C98BA" mask="url(#mask-8)"></path>
            </g>
            <path d="M904.981989,29.9900233 C907.204587,30.6883937 909.085247,32.1278921 909.085247,34.8643641 C909.085247,37.6008361 906.862649,39.8242197 904.127144,39.8242197 C902.673907,39.8242197 900.878732,39.3111312 898.314196,38.7980427 C897.288382,38.6270132 894.381907,38.2849542 890.976774,38.2849542 C879.521846,38.2849542 873.879867,43.3303245 873.879867,55.0458454 L873.879867,113.937004 C873.879867,116.830253 871.828239,119.224666 868.936012,119.224666 C866.200507,119.224666 863.977909,116.830253 863.977909,113.937004 L863.977909,54.5327569 C863.977909,38.1139247 873.537929,28.3794955 890.805805,28.3794955 C896.618753,28.3794955 902.075515,29.1348758 904.981989,29.9900233" id="Fill-23" fill="#0C98BA"></path>
            <path d="M976.79042,35.2092736 C978.329142,36.3209654 979.013018,37.8602309 979.013018,39.3994964 C979.013018,42.121716 976.79042,44.359352 974.054915,44.359352 C972.858132,44.359352 971.832317,44.017293 970.208111,42.9056012 C965.677431,39.9125849 959.280339,38.2878046 953.552875,38.2878046 C940.217288,38.2878046 933.050835,43.9175258 933.050835,53.3241484 C933.050835,59.4812105 936.455969,63.9279776 947.739927,66.8354791 L960.890297,69.9140102 C976.619451,74.1754953 983.956873,81.7150458 983.956873,93.4163143 C983.956873,109.478835 972.003287,119.99715 953.552875,119.99715 C940.730196,119.99715 930.486299,116.2345 923.049145,110.26272 C921.083001,108.709202 920.741063,107.169937 920.741063,105.97273 C920.741063,103.236258 922.96366,101.012875 925.699165,101.012875 C926.895949,101.012875 927.750794,101.283671 929.460485,102.566393 C934.489825,106.571334 942.097948,110.077438 953.552875,110.077438 C966.703246,110.077438 974.054915,103.164996 974.054915,93.9294028 C974.054915,87.002708 969.780689,82.7269704 959.009638,80.0047508 L945.517329,76.7409378 C930.81399,73.1493183 923.13463,65.4672431 923.13463,53.6662074 C923.13463,38.1167751 935.259186,28.382346 953.552875,28.382346 C963.283864,28.382346 971.917802,31.617654 976.79042,35.2092736" id="Fill-25" fill="#0C98BA"></path>
            <g id="Group-29" transform="translate(1006.024961, 28.378070)">
                <mask id="mask-10" fill="white">
                    <use xlink:href="#path-9"></use>
                </mask>
                <g id="Clip-28"></g>
                <path d="M9.93162189,40.8475462 L60.5099695,40.8475462 C62.2196601,40.8475462 62.9035364,40.1634282 63.0745054,38.4531332 C64.4422579,21.0081239 53.5002379,9.90545869 37.1014554,9.90545869 C18.6510441,9.90545869 9.4187147,21.5354649 9.93162189,40.8475462 M72.9764636,35.7309136 L72.9764636,41.7026937 C72.9764636,47.0758706 69.8990205,50.5962278 63.0745054,50.5962278 L9.93162189,50.5962278 L9.93162189,53.8315359 C9.93162189,71.9606632 21.4720336,81.6950924 38.2127543,81.6950924 C46.3337847,81.6950924 52.7308772,80.4978859 57.859949,78.0179581 C59.6551242,77.177063 61.2793303,76.492945 62.5615983,76.492945 C65.2971032,76.492945 67.5197011,78.7020761 67.5197011,81.4528006 C67.5197011,83.4909022 66.4084022,85.2011972 63.7583817,86.4839185 C58.0309181,89.3059053 48.9695578,91.629056 38.1272698,91.629056 C14.2058484,91.629056 1.38316877,76.7494893 0.186385333,54.515654 C-0.155552792,48.3585919 0.0154162707,39.9923987 0.357354395,34.6904841 C1.89607596,12.9839897 16.756137,0 37.2724244,0 C59.4841551,0 72.9764636,15.0363438 72.9764636,35.7309136" id="Fill-27" fill="#0C98BA" mask="url(#mask-10)"></path>
            </g>
        </g>
    </g>
</svg>